<svg width="500" height="500" version="1.1" xmlns="http://www.w3.org/2000/svg" desc="Created with imagetracer.js version 1.2.6" ><path fill="rgb(95,54,131)" stroke="rgb(95,54,131)" stroke-width="1" opacity="0.9921568627450981" d="M 157.5 85 L 161 85.5 L 157.5 86 L 157.5 85 Z " /><path fill="rgb(95,54,131)" stroke="rgb(95,54,131)" stroke-width="1" opacity="0.9921568627450981" d="M 195.5 104 L 200 104.5 Q 198.8 107.3 193.5 106 L 193.5 105 L 195.5 104 Z " /><path fill="rgb(95,54,131)" stroke="rgb(95,54,131)" stroke-width="1" opacity="0.9921568627450981" d="M 100.5 106 L 99.5 108 L 100.5 106 Z " /><path fill="rgb(95,54,131)" stroke="rgb(95,54,131)" stroke-width="1" opacity="0.9921568627450981" d="M 184.5 106 L 192 106.5 L 184.5 107 L 184.5 106 Z " /><path fill="rgb(95,54,131)" stroke="rgb(95,54,131)" stroke-width="1" opacity="0.9921568627450981" d="M 157.5 109 L 160 109.5 L 157.5 110 L 157.5 109 Z " /><path fill="rgb(95,54,131)" stroke="rgb(95,54,131)" stroke-width="1" opacity="0.9921568627450981" d="M 96.5 110 L 97 111.5 L 95 112.5 L 96.5 110 Z " /><path fill="rgb(95,54,131)" stroke="rgb(95,54,131)" stroke-width="1" opacity="0.9921568627450981" d="M 146.5 110 Q 151.3 108.7 150 112 L 135.5 113 L 120.5 116 L 118.5 116 L 98.5 118 L 94 114.5 L 96.5 116 Q 103.2 113.7 113.5 115 L 118.5 113 L 129.5 113 L 146.5 110 Z " /><path fill="rgb(95,54,131)" stroke="rgb(95,54,131)" stroke-width="1" opacity="0.9921568627450981" d="M 115.5 131 L 117.5 132 L 120.5 131 L 126.5 131 L 131.5 133 L 139.5 133 L 142.5 135 L 152.5 135 L 153.5 136 L 155.5 135 L 155.5 137 Q 158.7 139.3 165.5 138 L 169.5 140 L 171.5 137 L 174 138 L 175 143 L 180 142.5 L 179 140.5 L 180.5 141 L 186.5 142 L 190 141 L 191 143.5 L 190 146 L 194.5 149 L 197 149 L 201 142 L 219.5 142 L 220 144.5 L 221.5 146 L 238.5 146 L 240 142 L 299.5 142 L 300 144.5 L 301.5 146 L 318.5 146 L 320 142 L 324 142 L 324 140.5 L 325 137.5 Q 323.5 132.3 328 134 L 330 139.5 L 329 141.5 L 330 144.5 L 328 149.5 L 329 152.5 Q 326.8 153.8 328 158.5 L 326.5 160 L 324 161.5 Q 321.3 169.8 315 174.5 L 314 178.5 L 299 195.5 L 297.5 199 L 295 200.5 Q 295.5 204.5 292.5 205 Q 290.3 204.3 291 206.5 L 285 211.5 L 280 217.5 L 280 220 L 275 223.5 L 260 240.5 L 247 259.5 L 242 271.5 L 242 280.5 L 251.5 300 Q 263.2 311.8 279 319.5 L 275.5 320 Q 269.4 313.4 260 311 L 258.5 308 L 253 304.5 L 244 293.5 L 241 286.5 Q 237.6 278.9 239 266.5 L 243 260.5 L 243 257.5 L 253 244.5 L 254 240.5 L 250.5 238 L 246 240.5 L 247 246.5 Q 246.3 248.8 242.5 248 L 238 245.5 L 236.5 242 L 235.5 245 L 233.5 240 L 232 240.5 L 234 243.5 L 226 254.5 L 224 260 L 221 261.5 L 220 265.5 L 203.5 282 L 187.5 293 L 189.5 290 L 200 284 Q 198.9 281.3 201.5 282 L 207 277.5 L 209.5 274 L 212 272.5 Q 222.9 260.9 229 244.5 L 232 231.5 L 232 213.5 L 229 204.5 L 229 200.5 L 223 188.5 L 212 173 L 208 170.5 L 206.5 168 L 187.5 154 L 177.5 150 L 174.5 147 Q 169.3 147.2 167.5 144 L 157.5 142 L 153.5 139 L 138.5 137 L 135.5 135 L 131.5 136 L 122.5 134 L 94.5 134 L 88.5 136 L 70 138 Q 71.3 141 67.5 140 L 50.5 146 L 49 145.5 Q 49.8 148.1 46.5 147 Q 44.6 150.7 39.5 151 Q 36.3 149.3 40 147.5 L 42.5 144 Q 43.8 146.3 45 143.5 L 44.5 142 L 43 142.5 L 46 141.5 Q 46.5 136 50.5 134 L 52.5 135 L 54 134.5 L 53 137 L 49.5 136 L 47 140.5 L 50.5 142 L 57.5 137 Q 59 139.5 64.5 138 L 69.5 135 Q 77.8 136.3 81.5 133 L 99.5 133 L 100.5 132 L 114.5 132 L 115.5 131 Z M 321 145 L 321 146 L 323 146 L 321 145 Z M 240 240 L 240 245 L 242 245 L 244 241 L 240 240 Z " /><path fill="rgb(95,54,131)" stroke="rgb(95,54,131)" stroke-width="1" opacity="0.9921568627450981" d="M 202.5 140 L 219 140.5 L 202.5 141 L 202.5 140 Z " /><path fill="rgb(95,54,131)" stroke="rgb(95,54,131)" stroke-width="1" opacity="0.9921568627450981" d="M 138.5 171 Q 143.8 169.8 145 172.5 L 143.5 173 L 138.5 172 L 126.5 181 L 128 178.5 Q 127.3 176.3 129.5 177 L 138.5 171 Z " /><path fill="rgb(95,54,131)" stroke="rgb(95,54,131)" stroke-width="1" opacity="0.9921568627450981" d="M 36.5 173 Q 41.6 172.4 43 175.5 L 41.5 176 Q 40.8 173.3 36.5 174 L 34.5 175 L 34.5 174 L 36.5 173 Z " /><path fill="rgb(95,54,131)" stroke="rgb(95,54,131)" stroke-width="1" opacity="0.9921568627450981" d="M 31.5 175 L 33 175.5 L 27 180.5 L 29 177.5 L 31.5 175 Z " /><path fill="rgb(95,54,131)" stroke="rgb(95,54,131)" stroke-width="1" opacity="0.9921568627450981" d="M 125.5 182 L 125 183.5 L 123.5 187 L 123 185.5 L 125.5 182 Z " /><path fill="rgb(95,54,131)" stroke="rgb(95,54,131)" stroke-width="1" opacity="0.9921568627450981" d="M 25.5 183 L 25 184.5 L 24.5 186 L 24 184.5 L 25.5 183 Z " /><path fill="rgb(95,54,131)" stroke="rgb(95,54,131)" stroke-width="1" opacity="0.9921568627450981" d="M 7.5 270 L 10 273.5 L 7 271.5 L 7.5 270 Z " /><path fill="rgb(95,54,131)" stroke="rgb(95,54,131)" stroke-width="1" opacity="0.9921568627450981" d="M 12.5 275 L 16 279.5 L 12 276.5 L 12.5 275 Z " /><path fill="rgb(95,54,131)" stroke="rgb(95,54,131)" stroke-width="1" opacity="0.9921568627450981" d="M 17.5 280 L 38 294.5 L 36.5 294 L 19 284 L 17.5 280 Z " /><path fill="rgb(95,54,131)" stroke="rgb(95,54,131)" stroke-width="1" opacity="0.9921568627450981" d="M 40.5 295 L 47 298.5 L 45.5 299 Q 40.9 297.8 40.5 295 Z " /><path fill="rgb(95,54,131)" stroke="rgb(95,54,131)" stroke-width="1" opacity="0.9921568627450981" d="M 178.5 296 L 177.5 298 L 176 297.5 L 178.5 296 Z " /><path fill="rgb(95,54,131)" stroke="rgb(95,54,131)" stroke-width="1" opacity="0.9921568627450981" d="M 168.5 300 L 170 300.5 L 167.5 302 L 168.5 300 Z " /><path fill="rgb(95,54,131)" stroke="rgb(95,54,131)" stroke-width="1" opacity="0.9921568627450981" d="M 70.5 306 L 78 308.5 L 74.5 309 Q 70.5 308.5 70.5 306 Z " /><path fill="rgb(95,54,131)" stroke="rgb(95,54,131)" stroke-width="1" opacity="0.9921568627450981" d="M 89.5 310 L 92 310.5 L 89.5 311 L 89.5 310 Z " /><path fill="rgb(95,54,131)" stroke="rgb(95,54,131)" stroke-width="1" opacity="0.9921568627450981" d="M 100.5 311 L 107 311.5 L 100.5 312 L 100.5 311 Z " /><path fill="rgb(95,54,131)" stroke="rgb(95,54,131)" stroke-width="1" opacity="0.9921568627450981" d="M 116.5 311 L 120 311.5 L 116.5 312 L 116.5 311 Z " /><path fill="rgb(95,54,131)" stroke="rgb(95,54,131)" stroke-width="1" opacity="0.9921568627450981" d="M 280.5 320 L 305.5 333 L 318 343.5 L 317.5 345 L 315 344 L 313.5 340 L 298.5 330 L 295.5 330 L 280 322 L 280.5 320 Z " /><path fill="rgb(95,54,131)" stroke="rgb(95,54,131)" stroke-width="1" opacity="0.9921568627450981" d="M 319.5 346 L 323 350.5 L 321 349.5 L 319.5 346 Z " /><path fill="rgb(95,54,131)" stroke="rgb(95,54,131)" stroke-width="1" opacity="0.9921568627450981" d="M 324.5 355 L 325 358.5 L 324 358.5 L 324.5 355 Z " /><path fill="rgb(149,133,175)" stroke="rgb(149,133,175)" stroke-width="1" opacity="0.6039215686274509" d="M 159.5 72 L 163.5 73 L 164.5 72 L 190.5 72 L 190.5 73 L 162.5 74 L 155.5 76 L 143.5 77 L 143.5 76 Q 147.8 76.8 148.5 74 L 152 75 Q 150.9 71.5 158.5 73 L 159.5 72 Z " /><path fill="rgb(149,133,175)" stroke="rgb(149,133,175)" stroke-width="1" opacity="0.6039215686274509" d="M 194.5 72 L 209 72.5 L 194.5 73 L 194.5 72 Z " /><path fill="rgb(149,133,175)" stroke="rgb(149,133,175)" stroke-width="1" opacity="0.6039215686274509" d="M 213.5 72 L 246.5 72 L 247.5 73 L 258.5 73 L 263.5 75 L 284.5 77 L 307 81.5 L 301.5 82 L 295.5 80 L 286.5 80 L 274.5 77 L 266.5 77 L 256.5 75 L 245.5 75 L 234.5 73 L 213.5 73 L 213.5 72 Z " /><path fill="rgb(149,133,175)" stroke="rgb(149,133,175)" stroke-width="1" opacity="0.6039215686274509" d="M 140.5 76 L 141.5 78 L 125.5 82 L 115.5 87 L 110.5 88 Q 87.6 98.8 69 113 L 67.5 116 L 64.5 117 L 54.5 127 L 56 124.5 L 58.5 121 L 66 116 Q 64.9 113.3 67.5 114 L 74.5 107 L 79 106 L 80.5 103 L 108.5 87 L 115 86 Q 113.8 83 117.5 84 L 122.5 81 L 124.5 82 L 128 81 L 128.5 79 L 129.5 80 L 131.5 78 L 135.5 78 L 140.5 76 Z " /><path fill="rgb(149,133,175)" stroke="rgb(149,133,175)" stroke-width="1" opacity="0.6039215686274509" d="M 184.5 97 L 185 99 L 181 98.5 L 184.5 97 Z " /><path fill="rgb(149,133,175)" stroke="rgb(149,133,175)" stroke-width="1" opacity="0.6039215686274509" d="M 119.5 104 L 120 106 L 127.5 104 L 132.5 104 L 132.5 105 L 117.5 107 L 119.5 104 Z " /><path fill="rgb(149,133,175)" stroke="rgb(149,133,175)" stroke-width="1" opacity="0.6039215686274509" d="M 52.5 127 L 53 128.5 L 52 131 L 48 133.5 L 34.5 152 L 33 151.5 Q 37.3 148.6 38 143 L 41 141.5 L 44.5 136 L 47 134.5 L 52.5 127 Z " /><path fill="rgb(149,133,175)" stroke="rgb(149,133,175)" stroke-width="1" opacity="0.6039215686274509" d="M 30.5 156 L 28.5 159 L 30.5 156 Z " /><path fill="rgb(149,133,175)" stroke="rgb(149,133,175)" stroke-width="1" opacity="0.6039215686274509" d="M 24 165 L 26 165.5 L 23.5 169 L 23 167.5 L 24 165 Z " /><path fill="rgb(149,133,175)" stroke="rgb(149,133,175)" stroke-width="1" opacity="0.6039215686274509" d="M 20.5 174 L 21 175.5 L 18 177.5 L 20.5 174 Z " /><path fill="rgb(149,133,175)" stroke="rgb(149,133,175)" stroke-width="1" opacity="0.6039215686274509" d="M 17.5 180 L 18 181.5 L 16.5 185 L 16 182.5 L 17.5 180 Z " /><path fill="rgb(149,133,175)" stroke="rgb(149,133,175)" stroke-width="1" opacity="0.6039215686274509" d="M 13.5 190 L 14 191.5 L 12.5 195 L 12 191.5 L 13.5 190 Z " /><path fill="rgb(149,133,175)" stroke="rgb(149,133,175)" stroke-width="1" opacity="0.6039215686274509" d="M 9.5 203 L 10 205 L 8 204.5 L 9.5 203 Z " /><path fill="rgb(149,133,175)" stroke="rgb(149,133,175)" stroke-width="1" opacity="0.6039215686274509" d="M 5.5 221 L 6 223.5 L 4 224.5 L 5.5 221 Z " /><path fill="rgb(149,133,175)" stroke="rgb(149,133,175)" stroke-width="1" opacity="0.6039215686274509" d="M 4.5 226 L 5 227.5 L 3.5 234 L 3 228.5 L 4.5 226 Z " /><path fill="rgb(149,133,175)" stroke="rgb(149,133,175)" stroke-width="1" opacity="0.6039215686274509" d="M 3.5 235 L 4 238.5 L 3 238.5 L 3.5 235 Z " /><path fill="rgb(149,133,175)" stroke="rgb(149,133,175)" stroke-width="1" opacity="0.6039215686274509" d="M 2.5 248 L 3 260.5 L 2 260.5 L 2.5 248 Z " /><path fill="rgb(149,133,175)" stroke="rgb(149,133,175)" stroke-width="1" opacity="0.6039215686274509" d="M 3.5 263 L 6 278.5 L 5 278.5 L 3 268.5 L 3.5 263 Z " /><path fill="rgb(149,133,175)" stroke="rgb(149,133,175)" stroke-width="1" opacity="0.6039215686274509" d="M 6.5 282 L 7 285.5 L 6 285.5 L 6.5 282 Z " /><path fill="rgb(149,133,175)" stroke="rgb(149,133,175)" stroke-width="1" opacity="0.6039215686274509" d="M 7.5 287 L 11 302.5 L 10 302.5 L 9 297.5 L 7 295.5 L 7 291.5 L 7.5 287 Z " /><path fill="rgb(149,133,175)" stroke="rgb(149,133,175)" stroke-width="1" opacity="0.6039215686274509" d="M 11.5 304 L 16 316.5 L 15 316.5 L 14.5 315 L 13 315.5 L 14 313 L 12 312.5 L 13 310.5 Q 10 308 11.5 304 Z " /><path fill="rgb(149,133,175)" stroke="rgb(149,133,175)" stroke-width="1" opacity="0.6039215686274509" d="M 16.5 318 L 18 322.5 L 17 322.5 L 16.5 318 Z " /><path fill="rgb(149,133,175)" stroke="rgb(149,133,175)" stroke-width="1" opacity="0.6039215686274509" d="M 18.5 324 L 22 330.5 L 21 330.5 L 18.5 324 Z " /><path fill="rgb(149,133,175)" stroke="rgb(149,133,175)" stroke-width="1" opacity="0.6039215686274509" d="M 22.5 332 Q 37.3 362.2 61 383.5 L 50.5 374 L 49 374.5 Q 51.5 373 48 371.5 L 40.5 362 L 39 362.5 L 40 360.5 L 35 356.5 L 35 354.5 L 30.5 347 L 29 347.5 L 29 345.5 L 22 333.5 L 22.5 332 Z " /><path fill="rgb(149,133,175)" stroke="rgb(149,133,175)" stroke-width="1" opacity="0.6039215686274509" d="M 62.5 385 L 81 399.5 L 78.5 398 L 64.5 388 L 62.5 385 Z " /><path fill="rgb(149,133,175)" stroke="rgb(149,133,175)" stroke-width="1" opacity="0.6039215686274509" d="M 82.5 400 Q 105.9 417.1 137.5 426 L 164.5 431 L 199.5 431 L 200.5 430 L 208.5 430 L 209.5 429 L 243.5 425 L 253.5 422 L 253.5 423 L 240.5 427 L 226.5 428 L 204.5 432 Q 193.6 430.6 186.5 433 L 185.5 432 L 162.5 432 L 132.5 426 Q 113.4 420.1 97.5 411 L 84.5 403 L 82.5 400 Z " /><path fill="rgb(62,58,139)" stroke="rgb(62,58,139)" stroke-width="1" opacity="0.9882352941176471" d="M 182.5 73 L 220.5 73 L 221.5 74 L 223.5 74 L 239.5 74 L 246.5 76 L 262.5 77 L 267.5 79 L 269.5 78 Q 271 80.5 276.5 79 L 280.5 81 L 285.5 81 L 289.5 83 L 296.5 83 L 299.5 85 Q 304.9 84.4 307 86 Q 305.9 89.5 313.5 88 L 322 90 L 322.5 92 L 326.5 90 Q 328.7 93.3 334 93.5 L 333 96 L 339.5 95 L 367 105.5 L 362.5 107 L 356.5 104 L 350 107 L 349.5 105 L 333.5 105 L 330 104 Q 331 100.2 328.5 99 L 322.5 100 L 318.5 99 L 315 100.5 L 320 104.5 L 328.5 114 Q 331.3 113.4 330 119.5 L 335 129.5 L 337 147.5 L 332 160.5 L 322.5 173 Q 320.3 172.3 321 174.5 L 302.5 196 Q 300.3 195.3 301 197.5 L 300 200 L 296 202.5 L 290.5 209 L 288 210.5 L 282.5 217 L 280.5 218 L 285 212.5 L 286.5 210 L 291 206.5 Q 290.3 204.3 292.5 205 L 296.5 199 L 299 197.5 L 299 195.5 L 314 178.5 L 315 174.5 Q 321.9 168.9 325.5 160 L 328 158.5 L 329 150.5 L 328 148.5 L 330 142.5 L 329 140.5 L 330 138.5 L 328 134 Q 323.5 132.3 325 137.5 L 324 140.5 L 324 142 L 320 142 L 320 145 L 323 145.5 L 320.5 146 L 318.5 146 L 301.5 146 L 300 144.5 L 299.5 142 L 240 142 L 238.5 146 L 221.5 146 L 220 144.5 L 219.5 142 L 201 142 L 197 149 L 194.5 149 L 190 146 L 191 143.5 L 190 141 L 182.5 142 L 179.5 140 L 179 141.5 L 179.5 143 Q 173.7 145.1 175 140.5 L 174 138 L 171.5 137 L 169.5 140 L 165.5 138 Q 158 139.5 155 136.5 L 155.5 135 L 153.5 136 L 152.5 135 L 142.5 135 L 139.5 133 L 131.5 133 L 126.5 131 L 120.5 131 L 116.5 131 L 114.5 132 L 100.5 132 L 99.5 133 L 81.5 133 Q 77.8 136.3 69.5 135 L 64.5 138 L 58.5 138 L 56.5 138 L 48.5 142 Q 45.7 140.8 48 139.5 L 49.5 136 L 53 137 L 53 135 Q 50.3 136.1 51 133.5 L 54 129 Q 56.7 130.1 56 127.5 L 75.5 110 Q 91.8 97.8 111.5 89 L 135.5 80 L 139.5 80 L 148.5 77 L 159.5 76 L 160.5 75 L 169.5 75 L 170.5 74 L 181.5 74 L 182.5 73 Z M 168 84 L 167 85 L 151 86 L 132 91 Q 114 97 101 106 L 94 115 L 99 118 L 119 116 L 121 116 L 136 113 L 150 112 L 156 110 L 164 110 L 171 108 L 199 106 L 206 104 L 211 104 L 222 100 L 223 98 L 222 94 L 214 88 L 206 86 L 194 85 L 193 84 L 168 84 Z M 326 94 L 320 95 L 322 98 L 328 95 L 326 94 Z M 331 97 L 330 100 L 331 100 L 331 97 Z M 203 140 L 203 141 L 219 141 L 203 140 Z " /><path fill="rgb(62,58,139)" stroke="rgb(62,58,139)" stroke-width="1" opacity="0.9882352941176471" d="M 370.5 106 L 371 108.5 L 370 108.5 L 370.5 106 Z " /><path fill="rgb(62,58,139)" stroke="rgb(62,58,139)" stroke-width="1" opacity="0.9882352941176471" d="M 380.5 110 L 383 113.5 L 380 114 L 379 111.5 L 380.5 110 Z " /><path fill="rgb(62,58,139)" stroke="rgb(62,58,139)" stroke-width="1" opacity="0.9882352941176471" d="M 360 112 Q 363.8 111 365 113.5 Q 365.8 115.8 363.5 115 L 361.5 116 L 360 112 Z " /><path fill="rgb(62,58,139)" stroke="rgb(62,58,139)" stroke-width="1" opacity="0.9882352941176471" d="M 383.5 115 L 384.5 117 L 383.5 115 Z " /><path fill="rgb(62,58,139)" stroke="rgb(62,58,139)" stroke-width="1" opacity="0.9882352941176471" d="M 94.5 134 L 123 134.5 L 89.5 136 L 89.5 135 L 94.5 134 Z " /><path fill="rgb(62,58,139)" stroke="rgb(62,58,139)" stroke-width="1" opacity="0.9882352941176471" d="M 128.5 135 L 131 135.5 L 128.5 136 L 128.5 135 Z " /><path fill="rgb(62,58,139)" stroke="rgb(62,58,139)" stroke-width="1" opacity="0.9882352941176471" d="M 82.5 136 L 87 136.5 L 82.5 137 L 82.5 136 Z " /><path fill="rgb(62,58,139)" stroke="rgb(62,58,139)" stroke-width="1" opacity="0.9882352941176471" d="M 74.5 137 L 80 137.5 L 70.5 139 L 70.5 138 L 74.5 137 Z " /><path fill="rgb(62,58,139)" stroke="rgb(62,58,139)" stroke-width="1" opacity="0.9882352941176471" d="M 140.5 137 L 143 137.5 L 140.5 138 L 140.5 137 Z " /><path fill="rgb(62,58,139)" stroke="rgb(62,58,139)" stroke-width="1" opacity="0.9882352941176471" d="M 146.5 138 L 149 138.5 L 146.5 139 L 146.5 138 Z " /><path fill="rgb(62,58,139)" stroke="rgb(62,58,139)" stroke-width="1" opacity="0.9882352941176471" d="M 150.5 139 L 156 140.5 L 154.5 141 L 150.5 140 L 150.5 139 Z " /><path fill="rgb(62,58,139)" stroke="rgb(62,58,139)" stroke-width="1" opacity="0.9882352941176471" d="M 45.5 140 L 46 141.5 L 43.5 145 L 43 143.5 L 45.5 140 Z " /><path fill="rgb(62,58,139)" stroke="rgb(62,58,139)" stroke-width="1" opacity="0.9882352941176471" d="M 187.5 144 L 188.5 146 L 187.5 144 Z " /><path fill="rgb(62,58,139)" stroke="rgb(62,58,139)" stroke-width="1" opacity="0.9882352941176471" d="M 173.5 147 L 176 148.5 L 174.5 148 L 173.5 147 Z " /><path fill="rgb(62,58,139)" stroke="rgb(62,58,139)" stroke-width="1" opacity="0.9882352941176471" d="M 278.5 220 L 280 220.5 L 275.5 224 L 278.5 220 Z " /><path fill="rgb(62,58,139)" stroke="rgb(62,58,139)" stroke-width="1" opacity="0.9882352941176471" d="M 267.5 232 L 266.5 234 L 267.5 232 Z " /><path fill="rgb(0,0,0)" stroke="rgb(0,0,0)" stroke-width="1" opacity="0" d="M 0 0 L 500 0 L 500 500 L 0 500 L 0 0 Z M 159 72 L 158 73 L 147 74 L 139 77 L 134 77 L 110 86 L 96 93 L 93 96 L 89 97 L 64 116 L 61 120 L 59 121 L 37 145 L 18 176 L 11 194 L 10 201 L 8 203 L 2 233 L 2 272 L 8 303 L 11 308 L 14 320 L 17 324 L 18 330 L 24 342 L 42 368 L 45 369 L 50 376 Q 49 378 52 377 L 57 383 Q 59 382 58 385 L 60 385 L 60 387 L 86 407 L 105 418 L 126 427 L 137 429 L 143 432 L 164 434 L 165 435 L 202 435 L 212 433 L 238 431 L 243 429 L 255 429 L 256 428 L 284 426 L 296 423 L 311 422 Q 319 418 332 418 L 345 414 L 350 414 L 363 411 L 374 407 L 378 407 L 383 404 L 391 403 Q 399 398 412 396 L 431 388 L 443 381 L 446 379 L 453 371 L 453 362 L 448 355 L 439 347 L 437 347 L 425 339 L 386 320 Q 382 320 382 315 L 384 313 Q 393 313 398 309 L 411 307 L 417 304 L 422 304 L 451 296 L 453 294 L 462 292 L 480 282 L 487 274 L 489 268 Q 491 252 485 246 Q 482 247 483 245 L 474 237 L 458 229 L 440 222 L 433 221 L 429 218 L 420 216 L 408 211 Q 405 212 406 209 L 428 209 L 429 208 L 463 206 L 466 204 L 473 204 L 487 201 L 496 197 L 499 194 L 499 165 L 497 163 Q 498 160 496 161 L 494 159 L 482 148 L 425 118 L 418 116 L 412 112 L 391 103 L 383 101 L 377 97 L 370 96 L 365 93 Q 354 92 347 87 L 340 86 L 331 82 L 318 81 L 315 79 L 304 77 L 288 76 L 284 74 L 265 73 L 264 72 L 159 72 Z " /><path fill="rgb(59,38,16)" stroke="rgb(59,38,16)" stroke-width="1" opacity="0.996078431372549" d="M 70.5 145 Q 75.3 143.7 74 147 L 70.5 148 Q 67.5 146.5 70.5 145 Z " /><path fill="rgb(59,38,16)" stroke="rgb(59,38,16)" stroke-width="1" opacity="0.996078431372549" d="M 149.5 147 L 158 149.5 L 148.5 152 L 145 149.5 Q 144.1 146.5 148.5 148 L 149.5 147 Z " /><path fill="rgb(59,38,16)" stroke="rgb(59,38,16)" stroke-width="1" opacity="0.996078431372549" d="M 160 149 Q 165.8 148.4 168.5 153 L 172 153 L 173.5 156 L 181.5 157 L 189 161.5 L 193.5 168 L 202 169 L 203 175 L 200.5 176 L 197.5 170 Q 188.6 171.4 185 167.5 Q 186.5 160.5 183.5 161 L 181.5 161 L 177.5 160 Q 176 162.5 170.5 161 L 166.5 156 L 160 151.5 L 160 149 Z " /><path fill="rgb(59,38,16)" stroke="rgb(59,38,16)" stroke-width="1" opacity="0.996078431372549" d="M 50 152 L 54 152.5 L 53 155 Q 48.5 156.5 50 152 Z " /><path fill="rgb(59,38,16)" stroke="rgb(59,38,16)" stroke-width="1" opacity="0.996078431372549" d="M 65.5 153 L 79.5 153 L 80 156.5 L 76.5 158 L 75.5 157 L 64.5 157 L 61 159.5 Q 61.8 163.3 59.5 164 L 56 161.5 Q 54.5 157.1 57.5 158 L 61 155.5 Q 60.1 152.5 64.5 154 L 65.5 153 Z " /><path fill="rgb(59,38,16)" stroke="rgb(59,38,16)" stroke-width="1" opacity="0.996078431372549" d="M 36 158 L 43 158 L 43 160.5 L 42 163.5 L 44 167.5 L 42.5 169 L 39 165.5 L 40 162.5 L 37 161.5 L 36 158 Z " /><path fill="rgb(59,38,16)" stroke="rgb(59,38,16)" stroke-width="1" opacity="0.996078431372549" d="M 127.5 159 Q 131.3 158.3 132 160.5 L 129.5 161 Q 128.3 158.7 127 161.5 L 128 163.5 Q 127 168 120.5 167 L 119 163.5 Q 120.6 160.5 126 162 L 127.5 159 Z " /><path fill="rgb(59,38,16)" stroke="rgb(59,38,16)" stroke-width="1" opacity="0.996078431372549" d="M 165.5 160 L 169 162.5 L 169 164.5 L 164 171 L 161.5 172 L 160 171.5 L 165 181.5 L 165 184.5 L 167.5 187 Q 169.8 187.8 169 185.5 L 170 180 L 172 180.5 L 172 190.5 L 172 192.5 Q 170.8 197.3 173 198.5 L 173 200.5 L 174 209.5 Q 171.7 210.8 173 215.5 L 175 221.5 L 173 226.5 L 174 227.5 L 174 241.5 L 173 246.5 L 174 249.5 Q 172.4 252.5 167 251 L 167 241.5 Q 170 239.3 169 234 Q 165.2 232.5 166 235.5 L 165 238.5 L 165.5 240 Q 161.5 239.5 161 242.5 L 155 251 Q 150 250.2 148 253.5 L 151.5 258 L 153 258.5 L 147 261 L 147 259 Q 144.3 260.1 145 257.5 L 143.5 256 L 137.5 255 L 136.5 258 L 133.5 258 L 122 247.5 Q 121.2 244.9 124.5 246 L 127 245 L 128 247.5 Q 125.8 248.8 128.5 250 L 130 249.5 L 131.5 253 L 136.5 254 L 144.5 252 L 153 247 L 159 239.5 L 166 221.5 L 166 200.5 L 163 188.5 L 159 180.5 L 151.5 172 L 148 170.5 L 149.5 168 Q 152.8 172 159 172 L 159 167.5 L 162.5 161 L 165.5 160 Z " /><path fill="rgb(59,38,16)" stroke="rgb(59,38,16)" stroke-width="1" opacity="0.996078431372549" d="M 144 161 Q 148.5 159.5 147 164 L 144 162.5 L 144 161 Z " /><path fill="rgb(59,38,16)" stroke="rgb(59,38,16)" stroke-width="1" opacity="0.996078431372549" d="M 153.5 161 L 154.5 163 Q 151.7 163.7 153.5 161 Z " /><path fill="rgb(59,38,16)" stroke="rgb(59,38,16)" stroke-width="1" opacity="0.996078431372549" d="M 29 165 L 34 166 L 31.5 171 L 31 169 Q 27.3 170.5 28 167.5 L 29 165 Z " /><path fill="rgb(59,38,16)" stroke="rgb(59,38,16)" stroke-width="1" opacity="0.996078431372549" d="M 53.5 167 Q 57.5 166.5 58 169.5 Q 58.5 173.5 55.5 174 L 52 168.5 L 53.5 167 Z " /><path fill="rgb(59,38,16)" stroke="rgb(59,38,16)" stroke-width="1" opacity="0.996078431372549" d="M 45 172 L 52.5 177 L 55.5 175 L 60 180.5 L 57.5 182 L 56 181.5 L 58.5 190 L 60 189.5 L 59 193.5 L 62 199.5 L 62 201.5 L 62.5 209 L 63.5 201 Q 66.8 202.8 65 209.5 L 64 210.5 L 63.5 219 Q 62.2 216.8 61 219.5 L 60 231.5 Q 62.3 232.8 61 237.5 L 60 239.5 L 60.5 241 L 58 240.5 Q 58.7 237.9 56 239 L 54 246.5 L 51.5 250 L 49.5 249 L 46.5 250 L 46.5 249 L 49 247.5 L 49 244.5 L 54 236.5 L 57 223.5 L 57 200.5 L 54 187.5 L 45 172 Z " /><path fill="rgb(59,38,16)" stroke="rgb(59,38,16)" stroke-width="1" opacity="0.996078431372549" d="M 124.5 172 L 128 172.5 L 121.5 178 L 119 178 Q 118 174.2 120.5 173 L 124.5 172 Z " /><path fill="rgb(59,38,16)" stroke="rgb(59,38,16)" stroke-width="1" opacity="0.996078431372549" d="M 185 178 L 198.5 178 L 199 180 L 185.5 180 L 185 178 Z " /><path fill="rgb(59,38,16)" stroke="rgb(59,38,16)" stroke-width="1" opacity="0.996078431372549" d="M 104.5 180 Q 110.8 177.8 109 183.5 L 107.5 183 Q 102.1 184.9 103 181.5 L 104.5 180 Z " /><path fill="rgb(59,38,16)" stroke="rgb(59,38,16)" stroke-width="1" opacity="0.996078431372549" d="M 200.5 181 L 203 182.5 L 205 185.5 L 204 188 L 200 189 L 199 182.5 L 200.5 181 Z " /><path fill="rgb(59,38,16)" stroke="rgb(59,38,16)" stroke-width="1" opacity="0.996078431372549" d="M 110.5 183 L 115 184 L 115 191.5 L 113.5 192 Q 110.3 192.8 111 197.5 L 113 197.5 L 113 218.5 L 111 226.5 L 117 238.5 L 117 242 L 114.5 241 Q 113 243.5 111.5 240 Q 108.1 240.9 110 235.5 L 111 233.5 L 110 228.5 Q 112.5 227 109 225.5 L 110 220.5 L 109 219.5 L 109 201.5 L 110 200.5 L 110.5 183 Z M 114 237 L 112 240 Q 114 243 115 240 L 114 237 Z " /><path fill="rgb(59,38,16)" stroke="rgb(59,38,16)" stroke-width="1" opacity="0.996078431372549" d="M 209.5 185 Q 215.3 184.3 216 188.5 Q 216.8 193.3 213.5 194 L 210 193 L 208 186.5 L 209.5 185 Z " /><path fill="rgb(59,38,16)" stroke="rgb(59,38,16)" stroke-width="1" opacity="0.996078431372549" d="M 100.5 194 L 103 199.5 L 100 201 L 100.5 194 Z " /><path fill="rgb(59,38,16)" stroke="rgb(59,38,16)" stroke-width="1" opacity="0.996078431372549" d="M 208.5 197 Q 212.9 195.5 212 198.5 L 210.5 200 L 200 200 L 200.5 198 L 207.5 198 L 208.5 197 Z " /><path fill="rgb(59,38,16)" stroke="rgb(59,38,16)" stroke-width="1" opacity="0.996078431372549" d="M 220.5 197 L 221 199.5 L 220 199.5 L 220.5 197 Z " /><path fill="rgb(59,38,16)" stroke="rgb(59,38,16)" stroke-width="1" opacity="0.996078431372549" d="M 10 216 Q 13.3 214.7 12 219.5 Q 9.7 220.8 11 225.5 L 12 228.5 L 14 239 L 11 240.5 L 10.5 243 L 8 230.5 L 9 226.5 L 8.5 225 Q 11.9 225.9 10 220.5 L 10 218.5 L 10 216 Z " /><path fill="rgb(59,38,16)" stroke="rgb(59,38,16)" stroke-width="1" opacity="0.996078431372549" d="M 225.5 221 L 226 230.5 L 225 233 L 222 231.5 L 223 225.5 L 225.5 221 Z " /><path fill="rgb(59,38,16)" stroke="rgb(59,38,16)" stroke-width="1" opacity="0.996078431372549" d="M 117.5 244 L 119 247.5 L 118 247.5 Q 118.8 244.9 115.5 246 L 115.5 245 L 117.5 244 Z " /><path fill="rgb(59,38,16)" stroke="rgb(59,38,16)" stroke-width="1" opacity="0.996078431372549" d="M 220.5 246 L 221 248.5 L 220 248.5 L 220.5 246 Z " /><path fill="rgb(59,38,16)" stroke="rgb(59,38,16)" stroke-width="1" opacity="0.996078431372549" d="M 17 247 Q 22.6 246 24 250.5 L 25 256 L 21.5 258 L 18.5 253 L 17 253.5 L 17 247 Z " /><path fill="rgb(59,38,16)" stroke="rgb(59,38,16)" stroke-width="1" opacity="0.996078431372549" d="M 53 251 Q 57.9 250.9 60 254.5 Q 60.8 257.1 57.5 256 L 52 253.5 L 53 251 Z " /><path fill="rgb(59,38,16)" stroke="rgb(59,38,16)" stroke-width="1" opacity="0.996078431372549" d="M 158.5 251 Q 160.8 250.3 160 252.5 L 161 256 Q 153.9 258.4 156 252 L 158.5 251 Z " /><path fill="rgb(59,38,16)" stroke="rgb(59,38,16)" stroke-width="1" opacity="0.996078431372549" d="M 48.5 255 L 50 255 L 50 260 L 45 260 L 45 256.5 Q 46.8 258.1 48.5 255 Z " /><path fill="rgb(59,38,16)" stroke="rgb(59,38,16)" stroke-width="1" opacity="0.996078431372549" d="M 119.5 256 L 125 258.5 L 123.5 261 Q 118.8 261.8 118 258.5 L 119.5 256 Z " /><path fill="rgb(59,38,16)" stroke="rgb(59,38,16)" stroke-width="1" opacity="0.996078431372549" d="M 28.5 257 Q 31.8 255.9 31 258.5 L 28.5 260 Q 25.5 258.5 28.5 257 Z " /><path fill="rgb(59,38,16)" stroke="rgb(59,38,16)" stroke-width="1" opacity="0.996078431372549" d="M 11.5 259 Q 15.5 258.5 16 261.5 L 16 263.5 L 20 267.5 L 20 271 L 17.5 271 L 11 267 L 9 260 L 11.5 259 Z " /><path fill="rgb(59,38,16)" stroke="rgb(59,38,16)" stroke-width="1" opacity="0.996078431372549" d="M 209.5 259 L 214 260.5 L 206 269.5 L 206.5 271 L 203.5 270 L 200 271 L 201 264 L 206 263 Q 204.9 260.3 207.5 261 L 209.5 259 Z M 204 265 L 202 267 Q 204 271 206 268 Q 207 264 204 265 Z " /><path fill="rgb(59,38,16)" stroke="rgb(59,38,16)" stroke-width="1" opacity="0.996078431372549" d="M 29.5 278 L 34 279.5 L 33 284 L 28 282 L 29.5 278 Z " /><path fill="rgb(59,38,16)" stroke="rgb(59,38,16)" stroke-width="1" opacity="0.996078431372549" d="M 188.5 279 L 191.5 280 L 193 279.5 L 189.5 284 L 185.5 285 L 185 280 L 188.5 279 Z " /><path fill="rgb(59,38,16)" stroke="rgb(59,38,16)" stroke-width="1" opacity="0.996078431372549" d="M 55 280 L 60 280 L 60 281.5 L 57.5 283 L 55 282 L 55 280 Z " /><path fill="rgb(59,38,16)" stroke="rgb(59,38,16)" stroke-width="1" opacity="0.996078431372549" d="M 161.5 280 L 164 280.5 L 161.5 281 L 161.5 280 Z " /><path fill="rgb(59,38,16)" stroke="rgb(59,38,16)" stroke-width="1" opacity="0.996078431372549" d="M 38.5 286 L 41.5 287 L 49.5 288 L 55 290 Q 53.9 292.7 56.5 292 L 56.5 293 L 53.5 294 L 43.5 291 L 38 287.5 L 38.5 286 Z " /><path fill="rgb(59,38,16)" stroke="rgb(59,38,16)" stroke-width="1" opacity="0.996078431372549" d="M 166.5 289 L 170 289 L 172 293 L 166.5 295 L 162.5 295 L 160 294 Q 158.2 289.1 164.5 291 L 166.5 289 Z " /><path fill="rgb(59,38,16)" stroke="rgb(59,38,16)" stroke-width="1" opacity="0.996078431372549" d="M 134 300 L 140 301.5 L 133.5 303 L 134 301.5 L 134 300 Z " /><path fill="rgb(59,38,16)" stroke="rgb(59,38,16)" stroke-width="1" opacity="0.996078431372549" d="M 148 300 L 151 300.5 L 148.5 302 L 148 300 Z " /><path fill="rgb(59,38,16)" stroke="rgb(59,38,16)" stroke-width="1" opacity="0.996078431372549" d="M 102.5 302 L 106.5 303 L 108.5 302 L 109.5 303 L 119.5 303 L 126 304 Q 127.3 307 123.5 306 L 120.5 307 L 119.5 306 L 100 306 L 99 303.5 L 102.5 302 Z " /><path fill="rgb(58,35,22)" stroke="rgb(58,35,22)" stroke-width="1" opacity="0.996078431372549" d="M 93.5 136 L 124.5 136 L 125.5 137 L 135.5 137 L 139.5 139 L 149.5 140 L 156.5 143 L 163.5 144 L 168.5 148 L 172.5 148 L 183.5 155 L 186.5 155 L 190 157 L 191.5 160 L 195 161.5 L 196.5 164 Q 203.7 165.8 207 171.5 L 209.5 175 L 212 176.5 L 221 188.5 L 221 191.5 L 224 194.5 Q 223.4 200.6 227 202.5 L 228 209.5 L 230 213.5 L 230 230.5 L 228 241.5 L 225 249.5 L 217 263.5 L 211 271 L 206 274.5 L 203.5 278 L 200.5 280 L 185.5 291 L 166.5 300 L 163.5 300 L 150.5 305 L 134.5 308 L 132.5 307 L 128.5 309 L 110.5 309 L 109.5 310 L 108.5 309 L 93.5 309 L 92.5 308 L 73.5 306 L 45.5 296 L 21.5 281 L 9 268.5 L 6 264.5 L 6 233.5 L 8 226.5 L 7 223.5 L 8 220 L 10 220 L 10 225 L 8 225.5 L 9 229.5 L 8 232.5 L 10.5 243 L 12.5 239 Q 15.9 239.9 14 234.5 L 11 227.5 L 11 225.5 L 12 216 Q 9 214.8 10 218.5 L 9 218.5 L 11 205.5 L 13 200 Q 16.8 201.5 16 198.5 L 14 198.5 L 17 187.5 L 20 183.5 L 20 180.5 L 23 177.5 L 25 170.5 L 31 159.5 L 35.5 155 L 39.5 153 Q 41.2 155.8 43 151.5 Q 42.3 149.3 44.5 150 L 62.5 143 L 66.5 143 L 70.5 140 L 93.5 136 Z M 71 145 Q 68 147 71 148 L 74 147 Q 75 144 71 145 Z M 150 147 L 149 148 Q 144 146 145 150 L 149 152 L 158 150 L 150 147 Z M 160 149 L 160 152 L 167 156 L 171 161 Q 176 163 178 160 L 182 161 L 184 161 Q 186 160 185 168 Q 189 171 198 170 L 201 176 L 203 175 L 202 169 L 194 168 L 189 162 L 182 157 L 174 156 L 172 153 L 169 153 Q 166 148 160 149 Z M 50 152 Q 49 157 53 155 L 54 153 L 50 152 Z M 66 153 L 65 154 Q 60 152 61 156 L 58 158 Q 54 157 56 162 L 60 164 Q 62 163 61 160 L 65 157 L 76 157 L 77 158 L 80 157 L 80 153 L 66 153 Z M 36 158 L 37 162 L 40 163 L 39 166 L 43 169 L 44 168 L 42 164 L 43 161 L 43 158 L 36 158 Z M 128 159 L 126 162 Q 121 160 119 164 L 121 167 Q 127 168 128 164 L 127 162 Q 128 159 130 161 L 132 161 Q 131 158 128 159 Z M 166 160 L 163 161 L 159 168 L 159 172 Q 153 172 151 168 L 148 170 L 149 172 L 145 168 L 135 170 Q 132 174 127 175 L 118 191 L 116 199 L 116 210 L 115 211 L 117 229 L 123 241 Q 122 243 125 242 L 128 247 L 138 252 L 145 251 L 146 251 L 137 254 L 132 253 L 130 250 L 129 250 Q 126 249 128 248 L 127 245 L 125 246 Q 121 245 122 248 L 134 258 L 137 258 L 138 255 L 144 256 L 145 258 Q 144 260 147 259 L 147 261 L 153 259 L 152 258 L 148 254 Q 150 250 155 251 L 161 243 Q 162 240 166 240 L 165 239 L 166 236 Q 165 233 169 234 Q 170 239 167 242 L 167 251 Q 172 252 174 250 L 173 247 L 174 242 L 174 228 L 173 227 L 175 222 L 173 216 Q 172 211 174 210 L 173 201 L 173 199 Q 171 197 172 193 L 172 191 L 172 181 L 170 180 L 169 186 Q 170 188 168 187 L 165 185 L 165 182 L 160 172 L 162 172 L 164 171 L 169 165 L 169 163 L 166 160 Z M 144 161 L 144 163 L 147 164 Q 149 160 144 161 Z M 154 161 Q 152 164 155 163 L 154 161 Z M 29 165 L 28 168 Q 27 170 31 169 L 32 171 L 34 166 L 29 165 Z M 54 167 L 52 169 L 56 174 Q 59 174 58 170 Q 58 167 54 167 Z M 40 170 L 30 173 L 23 182 L 18 195 L 18 197 L 16 207 L 16 226 L 20 240 L 24 247 Q 28 253 37 255 L 50 249 L 52 250 L 56 241 Q 55 238 58 239 L 59 241 Q 62 239 61 233 L 59 233 L 60 232 L 61 220 Q 62 217 64 219 L 64 211 L 65 210 Q 67 203 64 201 L 63 209 L 62 202 L 62 200 L 59 194 L 56 182 L 58 182 L 60 181 L 56 175 L 53 177 L 47 172 Q 44 171 45 174 L 48 177 L 44 172 L 40 170 Z M 125 172 L 121 173 Q 118 174 119 178 L 122 178 L 128 173 L 125 172 Z M 185 178 L 186 180 L 199 180 L 199 178 L 185 178 Z M 105 180 L 103 182 Q 102 185 108 183 L 109 184 Q 111 178 105 180 Z M 201 181 L 199 183 L 200 189 L 204 188 L 205 186 L 203 183 L 201 181 Z M 111 183 L 110 201 L 109 202 L 109 220 L 110 221 L 109 225 L 111 227 L 112 226 Q 111 220 113 219 L 113 198 L 111 198 Q 110 193 114 192 L 115 192 L 115 184 L 111 183 Z M 210 185 L 208 187 L 210 193 L 214 194 Q 217 193 216 189 Q 215 184 210 185 Z M 101 194 L 100 201 L 103 200 L 101 194 Z M 209 197 L 208 198 L 201 198 L 200 200 L 211 200 L 212 199 Q 213 195 209 197 Z M 221 197 L 220 200 L 221 200 L 221 197 Z M 226 221 L 223 226 L 222 232 L 225 233 L 226 231 L 226 221 Z M 112 227 L 110 229 L 111 234 L 110 236 Q 108 241 112 240 L 114 237 L 114 239 L 114 241 L 117 242 L 117 239 L 112 231 L 112 227 Z M 118 244 L 115 246 L 118 246 L 118 244 Z M 221 246 L 220 249 L 221 249 L 221 246 Z M 17 247 L 17 254 L 19 253 L 22 258 L 25 256 L 24 251 Q 23 246 17 247 Z M 53 251 L 52 254 L 58 256 Q 61 257 60 255 Q 58 251 53 251 Z M 159 251 L 156 252 Q 154 258 161 256 L 160 253 Q 161 250 159 251 Z M 49 255 Q 47 258 45 257 L 45 260 L 50 260 L 50 255 L 49 255 Z M 120 256 L 118 259 Q 119 262 124 261 L 125 259 L 120 256 Z M 29 257 Q 26 259 29 260 L 31 259 Q 32 256 29 257 Z M 12 259 L 9 260 L 11 267 L 18 271 L 20 271 L 20 268 L 16 264 L 16 262 Q 16 259 12 259 Z M 210 259 L 208 261 Q 205 260 206 263 L 201 264 L 200 271 L 206 270 L 212 263 L 214 260 L 211 261 L 211 260 L 210 259 Z M 30 278 L 28 282 L 33 284 L 34 280 L 30 278 Z M 189 279 L 185 280 L 186 285 L 190 284 L 193 280 L 192 280 L 189 279 Z M 55 280 L 55 282 L 58 283 L 60 282 L 60 280 L 55 280 Z M 162 280 L 162 281 L 164 281 L 162 280 Z M 39 286 L 38 288 L 44 291 L 54 294 L 57 293 L 57 292 Q 54 293 55 290 L 50 288 L 42 287 L 39 286 Z M 167 289 L 165 291 Q 158 289 160 294 L 163 295 L 167 295 L 172 293 L 170 289 L 167 289 Z M 134 300 L 134 302 L 140 302 L 134 300 Z M 148 300 L 149 302 L 151 301 L 148 300 Z M 103 302 L 99 304 L 100 306 L 120 306 L 121 307 L 124 306 Q 127 307 126 304 L 120 303 L 110 303 L 109 302 L 107 303 L 103 302 Z " /><path fill="rgb(58,35,22)" stroke="rgb(58,35,22)" stroke-width="1" opacity="0.996078431372549" d="M 151.5 172 L 153.5 175 L 151.5 172 Z " /><path fill="rgb(58,35,22)" stroke="rgb(58,35,22)" stroke-width="1" opacity="0.996078431372549" d="M 165.5 217 L 166 221.5 L 165 221.5 L 165.5 217 Z " /><path fill="rgb(58,35,22)" stroke="rgb(58,35,22)" stroke-width="1" opacity="0.996078431372549" d="M 56.5 221 L 57 223.5 L 56 223.5 L 56.5 221 Z " /><path fill="rgb(58,35,22)" stroke="rgb(58,35,22)" stroke-width="1" opacity="0.996078431372549" d="M 158.5 239 L 157.5 241 L 158.5 239 Z " /><path fill="rgb(58,35,22)" stroke="rgb(58,35,22)" stroke-width="1" opacity="0.996078431372549" d="M 48.5 247 L 47.5 249 L 48.5 247 Z " /><path fill="rgb(58,35,22)" stroke="rgb(58,35,22)" stroke-width="1" opacity="0.996078431372549" d="M 203.5 265 Q 207.3 263.8 206 267.5 Q 204 271 202 266.5 L 203.5 265 Z " /><path fill="rgb(43,92,166)" stroke="rgb(43,92,166)" stroke-width="1" opacity="0.996078431372549" d="M 240.5 74 L 245 74.5 L 240.5 75 L 240.5 74 Z " /><path fill="rgb(43,92,166)" stroke="rgb(43,92,166)" stroke-width="1" opacity="0.996078431372549" d="M 246.5 75 L 274.5 77 L 304.5 83 L 323.5 89 L 334.5 91 L 358.5 100 L 361.5 100 L 386.5 110 L 397.5 116 L 402.5 117 L 444.5 138 L 467.5 153 L 477 162.5 L 482 171.5 L 482 179.5 L 483 180.5 L 481 187 L 468.5 193 L 449.5 195 L 448.5 196 L 373.5 196 Q 372.2 198.3 367.5 197 L 365 199.5 L 368.5 205 L 382.5 212 L 385.5 212 L 389.5 215 L 407 220 Q 405.9 222.7 408.5 222 L 436 235.5 L 435.5 237 L 433 236 Q 431.5 239.7 434.5 239 L 434.5 240 L 427.5 238 L 425.5 240 L 410.5 241 L 407.5 239 L 298.5 238 L 297.5 239 L 281 240 L 280.5 237 L 272.5 240 Q 271.3 237.8 270 240.5 L 267 246.5 L 270 248.5 Q 270.8 250.8 268.5 250 L 267 247 L 263.5 246 L 259 249 L 259 254 L 255.5 254 L 250.5 261 Q 248.3 260.3 249 262.5 L 244 276.5 L 244 278.5 Q 248.4 297.6 262.5 307 L 275.5 316 L 305.5 331 L 316 338 L 325 350.5 L 327 365.5 Q 323.6 385.6 310.5 396 L 303.5 402 L 285.5 412 L 261.5 420 L 261.5 419 L 287.5 410 L 305 400 L 307.5 396 L 316 388.5 L 324 373.5 Q 326.4 366.4 325 355.5 L 322 348.5 L 312.5 338 L 300.5 330 L 288.5 325 L 269.5 314 L 250 298.5 L 243 284.5 L 242 271.5 L 250 254.5 L 270.5 229 Q 272.8 229.8 272 227.5 L 280 221 L 281.5 217 L 288 211.5 L 289.5 209 L 296 203.5 L 298.5 200 Q 300.8 200.8 300 198.5 L 301 196 L 307 191.5 L 320 176.5 L 321 173 L 324 171.5 L 333 158.5 L 337 147.5 L 337 140.5 L 335 134.5 L 335 129.5 L 330 119.5 L 330 114 L 328.5 114 L 320 105.5 L 318.5 103 L 315 100.5 L 321.5 99 L 323.5 100 L 328.5 99 L 330 99.5 L 330.5 97 L 331 99.5 L 330 104 L 333.5 105 L 350 105 Q 348.9 107.7 351.5 107 Q 353.3 103.8 358.5 104 L 362.5 107 L 367 105.5 L 349.5 98 L 336.5 95 L 333 96 L 334 93.5 L 325.5 90 L 322.5 92 L 322 90 L 313.5 88 L 307 88 Q 308.1 85.3 305.5 86 Q 304.3 83.8 299.5 85 L 296.5 83 L 289.5 83 L 285.5 81 L 280.5 81 L 276.5 79 L 268.5 78 L 266.5 79 L 256.5 76 L 246.5 76 L 246.5 75 Z M 371 106 L 370 109 L 371 109 L 371 106 Z M 381 110 L 379 112 L 380 114 L 383 114 L 381 110 Z M 360 112 L 362 116 L 364 115 Q 366 116 365 114 Q 364 111 360 112 Z M 302 233 L 301 235 L 360 235 L 359 233 L 302 233 Z M 416 235 L 410 237 Q 417 236 421 239 Q 424 240 422 236 L 416 235 Z " /><path fill="rgb(43,92,166)" stroke="rgb(43,92,166)" stroke-width="1" opacity="0.996078431372549" d="M 167.5 84 L 192 84.5 L 167.5 85 L 167.5 84 Z " /><path fill="rgb(43,92,166)" stroke="rgb(43,92,166)" stroke-width="1" opacity="0.996078431372549" d="M 161.5 85 L 164 85.5 L 161.5 86 L 161.5 85 Z " /><path fill="rgb(43,92,166)" stroke="rgb(43,92,166)" stroke-width="1" opacity="0.996078431372549" d="M 194.5 85 L 200 85.5 L 194.5 86 L 194.5 85 Z " /><path fill="rgb(43,92,166)" stroke="rgb(43,92,166)" stroke-width="1" opacity="0.996078431372549" d="M 150.5 86 L 156 86.5 L 146.5 88 L 146.5 87 L 150.5 86 Z " /><path fill="rgb(43,92,166)" stroke="rgb(43,92,166)" stroke-width="1" opacity="0.996078431372549" d="M 201.5 86 L 213.5 88 L 222 93.5 L 223 97.5 L 222 100 L 209.5 104 L 207.5 103 L 200.5 105 L 195.5 104 L 192.5 106 L 184.5 106 L 183.5 107 L 181.5 107 L 160.5 110 L 157.5 109 L 152.5 111 L 149.5 110 L 138.5 112 L 130.5 112 L 129.5 113 L 118.5 113 L 113.5 115 Q 103.2 113.7 96.5 116 L 95 113.5 L 98.5 108 L 111.5 100 L 110.5 102 Q 102.4 104.4 98 110.5 Q 97.3 112.8 99.5 112 L 109.5 110 L 111.5 110 L 118.5 109 L 120.5 109 L 124.5 108 L 126.5 109 L 127.5 108 L 137.5 108 L 144.5 106 L 152.5 106 L 159.5 104 L 161.5 105 L 169.5 103 L 190.5 102 L 194.5 100 L 214.5 99 L 221 96.5 Q 221.5 92.5 218.5 92 Q 212.2 87.3 201.5 87 L 201.5 86 Z " /><path fill="rgb(43,92,166)" stroke="rgb(43,92,166)" stroke-width="1" opacity="0.996078431372549" d="M 142.5 88 L 145 88.5 L 142.5 89 L 142.5 88 Z " /><path fill="rgb(43,92,166)" stroke="rgb(43,92,166)" stroke-width="1" opacity="0.996078431372549" d="M 138.5 89 L 141 89.5 L 136.5 91 L 136.5 90 L 138.5 89 Z " /><path fill="rgb(43,92,166)" stroke="rgb(43,92,166)" stroke-width="1" opacity="0.996078431372549" d="M 129.5 92 L 132 92.5 L 126.5 94 L 126.5 93 L 129.5 92 Z " /><path fill="rgb(43,92,166)" stroke="rgb(43,92,166)" stroke-width="1" opacity="0.996078431372549" d="M 325.5 94 L 328 94.5 L 321.5 98 L 320 95 L 325.5 94 Z " /><path fill="rgb(43,92,166)" stroke="rgb(43,92,166)" stroke-width="1" opacity="0.996078431372549" d="M 121.5 95 L 123 95.5 L 113.5 100 L 114.5 98 L 121.5 95 Z " /><path fill="rgb(43,92,166)" stroke="rgb(43,92,166)" stroke-width="1" opacity="0.996078431372549" d="M 277 241 L 281 242.5 L 278.5 244 L 277 241 Z " /><path fill="rgb(43,92,166)" stroke="rgb(43,92,166)" stroke-width="1" opacity="0.996078431372549" d="M 437.5 241 Q 440.1 240.3 439 243 L 433 242.5 L 437.5 241 Z " /><path fill="rgb(43,92,166)" stroke="rgb(43,92,166)" stroke-width="1" opacity="0.996078431372549" d="M 254.5 421 L 257 421.5 L 254.5 422 L 254.5 421 Z " /><path fill="rgb(203,234,246)" stroke="rgb(203,234,246)" stroke-width="1" opacity="0.3215686274509804" d="M 160.5 72 L 164 72.5 L 160.5 73 L 160.5 72 Z " /><path fill="rgb(203,234,246)" stroke="rgb(203,234,246)" stroke-width="1" opacity="0.3215686274509804" d="M 247.5 72 L 260.5 72 L 261.5 73 L 263.5 72 L 273.5 74 L 276.5 73 Q 278 75.5 283.5 74 L 287.5 76 L 303.5 77 L 314.5 79 L 317.5 81 L 330.5 82 L 339.5 86 L 346.5 87 Q 354 91.5 364.5 93 L 369.5 96 L 376.5 97 L 382.5 101 L 402.5 108 L 446.5 129 L 460.5 138 L 463.5 138 L 468.5 142 L 481.5 148 L 494 158.5 L 495.5 161 Q 497.8 160.3 497 162.5 Q 500 163.5 499 168.5 L 498 168.5 L 485.5 155 L 470.5 145 L 428.5 123 L 366.5 97 L 363.5 97 L 334.5 87 L 313.5 82 L 307.5 82 L 277.5 76 L 263.5 75 L 258.5 73 L 247.5 73 L 247.5 72 Z " /><path fill="rgb(203,234,246)" stroke="rgb(203,234,246)" stroke-width="1" opacity="0.3215686274509804" d="M 150.5 73 Q 153.1 72.3 152 75 L 149 74.5 L 150.5 73 Z " /><path fill="rgb(203,234,246)" stroke="rgb(203,234,246)" stroke-width="1" opacity="0.3215686274509804" d="M 146.5 74 L 148 74.5 L 141.5 77 L 141.5 76 L 146.5 74 Z " /><path fill="rgb(203,234,246)" stroke="rgb(203,234,246)" stroke-width="1" opacity="0.3215686274509804" d="M 133.5 77 L 132.5 79 L 133.5 77 Z " /><path fill="rgb(203,234,246)" stroke="rgb(203,234,246)" stroke-width="1" opacity="0.3215686274509804" d="M 130.5 78 L 129.5 80 L 130.5 78 Z " /><path fill="rgb(203,234,246)" stroke="rgb(203,234,246)" stroke-width="1" opacity="0.3215686274509804" d="M 127.5 79 L 128 81 L 123.5 82 L 123.5 81 L 127.5 79 Z " /><path fill="rgb(203,234,246)" stroke="rgb(203,234,246)" stroke-width="1" opacity="0.3215686274509804" d="M 118.5 82 L 117.5 84 L 116 83.5 L 118.5 82 Z " /><path fill="rgb(203,234,246)" stroke="rgb(203,234,246)" stroke-width="1" opacity="0.3215686274509804" d="M 114.5 84 L 115 86 L 109.5 87 L 109.5 86 L 114.5 84 Z " /><path fill="rgb(203,234,246)" stroke="rgb(203,234,246)" stroke-width="1" opacity="0.3215686274509804" d="M 103.5 89 L 102.5 91 L 95.5 95 L 95 93 L 103.5 89 Z " /><path fill="rgb(203,234,246)" stroke="rgb(203,234,246)" stroke-width="1" opacity="0.3215686274509804" d="M 157.5 89 L 161 89.5 L 157.5 90 L 157.5 89 Z " /><path fill="rgb(203,234,246)" stroke="rgb(203,234,246)" stroke-width="1" opacity="0.3215686274509804" d="M 149.5 90 L 150 92 L 148 91.5 L 149.5 90 Z " /><path fill="rgb(203,234,246)" stroke="rgb(203,234,246)" stroke-width="1" opacity="0.3215686274509804" d="M 151.5 90 L 156 90.5 L 151.5 91 L 151.5 90 Z " /><path fill="rgb(203,234,246)" stroke="rgb(203,234,246)" stroke-width="1" opacity="0.3215686274509804" d="M 88.5 97 L 86.5 100 L 88.5 97 Z " /><path fill="rgb(203,234,246)" stroke="rgb(203,234,246)" stroke-width="1" opacity="0.3215686274509804" d="M 82.5 101 L 84 101.5 L 81.5 103 L 82.5 101 Z " /><path fill="rgb(203,234,246)" stroke="rgb(203,234,246)" stroke-width="1" opacity="0.3215686274509804" d="M 78.5 104 L 79 106 L 77 105.5 L 78.5 104 Z " /><path fill="rgb(203,234,246)" stroke="rgb(203,234,246)" stroke-width="1" opacity="0.3215686274509804" d="M 68.5 112 L 67.5 114 L 68.5 112 Z " /><path fill="rgb(203,234,246)" stroke="rgb(203,234,246)" stroke-width="1" opacity="0.3215686274509804" d="M 63.5 116 L 61.5 119 L 63.5 116 Z " /><path fill="rgb(203,234,246)" stroke="rgb(203,234,246)" stroke-width="1" opacity="0.3215686274509804" d="M 55.5 124 L 54.5 126 L 55.5 124 Z " /><path fill="rgb(203,234,246)" stroke="rgb(203,234,246)" stroke-width="1" opacity="0.3215686274509804" d="M 50.5 129 L 49.5 131 L 50.5 129 Z " /><path fill="rgb(203,234,246)" stroke="rgb(203,234,246)" stroke-width="1" opacity="0.3215686274509804" d="M 47.5 132 L 47 133.5 L 45.5 136 L 46 134.5 L 47.5 132 Z " /><path fill="rgb(203,234,246)" stroke="rgb(203,234,246)" stroke-width="1" opacity="0.3215686274509804" d="M 40.5 141 L 39.5 143 L 40.5 141 Z " /><path fill="rgb(203,234,246)" stroke="rgb(203,234,246)" stroke-width="1" opacity="0.3215686274509804" d="M 32.5 152 L 31.5 154 L 32.5 152 Z " /><path fill="rgb(203,234,246)" stroke="rgb(203,234,246)" stroke-width="1" opacity="0.3215686274509804" d="M 30.5 155 L 28.5 158 L 30.5 155 Z " /><path fill="rgb(203,234,246)" stroke="rgb(203,234,246)" stroke-width="1" opacity="0.3215686274509804" d="M 25.5 162 L 26 165 L 24 164.5 L 25.5 162 Z " /><path fill="rgb(203,234,246)" stroke="rgb(203,234,246)" stroke-width="1" opacity="0.3215686274509804" d="M 22.5 169 L 22 170.5 L 20 176 L 18 175.5 L 22.5 169 Z " /><path fill="rgb(203,234,246)" stroke="rgb(203,234,246)" stroke-width="1" opacity="0.3215686274509804" d="M 15.5 184 L 16 185.5 L 13 187.5 L 15.5 184 Z " /><path fill="rgb(203,234,246)" stroke="rgb(203,234,246)" stroke-width="1" opacity="0.3215686274509804" d="M 498.5 190 L 499 193.5 L 495.5 197 L 486.5 201 L 472.5 204 L 465.5 204 L 462.5 206 L 428.5 208 L 427.5 209 L 406 209 Q 404.9 211.7 407.5 211 L 419.5 216 L 428.5 218 L 432.5 221 L 439.5 222 L 457.5 229 L 473.5 237 L 483 244.5 Q 482.3 246.8 484.5 246 Q 491.3 252.3 489 267.5 L 487 273.5 L 479.5 282 L 461.5 292 L 452.5 294 L 450.5 296 L 421.5 304 L 416.5 304 L 410.5 307 L 397.5 309 Q 392.5 313 383.5 313 L 382 314.5 Q 381.5 319.5 385.5 320 L 424.5 339 L 436.5 347 L 438.5 347 L 448 354.5 L 453 361.5 L 453 370.5 L 445.5 379 L 442.5 381 L 430.5 388 L 411.5 396 Q 399.4 397.9 390.5 403 L 382.5 404 L 377.5 407 L 373.5 407 L 362.5 411 L 349.5 414 L 344.5 414 L 331.5 418 Q 319.2 418.2 310.5 422 L 295.5 423 L 283.5 426 L 255.5 428 L 254.5 429 L 242.5 429 L 237.5 431 L 211.5 433 L 201.5 435 L 164.5 435 L 163.5 434 L 142.5 432 L 113.5 422 L 93.5 412 L 68 394 Q 69.1 391.3 66.5 392 L 60 387 L 60 385 L 58 385 Q 59.1 382.3 56.5 383 L 52 377 L 50 377 Q 51.5 373.3 48.5 374 L 44.5 369 L 42 367.5 L 40 362 L 38 362 L 38 360 Q 35.3 361.1 36 358.5 Q 32.2 357.2 33 353 Q 30 354.3 31 350.5 L 24 341.5 L 18 329.5 L 18 327.5 L 13 316.5 L 14 315.5 L 12.5 313 Q 14.8 312.3 14 314.5 Q 22.1 337.9 36 355.5 L 35.5 357 L 40 360.5 Q 48.5 374 60.5 384 Q 62.8 383.3 62 385.5 Q 87.9 409.1 123.5 423 L 155.5 431 Q 161 429.5 162.5 432 L 185.5 432 L 189.5 433 L 190.5 432 L 204.5 432 L 205.5 431 L 233.5 428 L 241.5 426 L 248.5 426 L 249.5 425 L 259.5 425 L 260.5 424 L 275.5 423 L 303.5 418 L 309.5 418 L 344.5 411 L 372.5 404 L 404.5 394 L 431.5 383 L 445 375 L 450 367.5 L 450 363.5 L 444.5 356 L 432.5 347 L 384.5 323 L 378 317.5 L 377 313.5 L 379.5 311 L 389.5 307 L 417.5 300 L 421.5 300 L 425.5 298 L 429.5 298 L 457.5 289 L 473.5 281 L 481 274.5 Q 487 269.5 486 257.5 Q 482.9 247.1 474.5 242 L 465.5 236 L 442.5 226 L 408.5 215 L 401 209.5 L 405.5 206 Q 411 207.5 412.5 205 L 450.5 203 L 451.5 202 L 459.5 202 L 460.5 201 L 471.5 200 L 490.5 195 L 498.5 190 Z " /><path fill="rgb(203,234,246)" stroke="rgb(203,234,246)" stroke-width="1" opacity="0.3215686274509804" d="M 11.5 193 L 12 195.5 L 11 195.5 L 11.5 193 Z " /><path fill="rgb(203,234,246)" stroke="rgb(203,234,246)" stroke-width="1" opacity="0.3215686274509804" d="M 5.5 218 L 6 220.5 L 4.5 223 L 4 221.5 L 5.5 218 Z " /><path fill="rgb(203,234,246)" stroke="rgb(203,234,246)" stroke-width="1" opacity="0.3215686274509804" d="M 2.5 235 L 3 240.5 L 2 240.5 L 2.5 235 Z " /><path fill="rgb(203,234,246)" stroke="rgb(203,234,246)" stroke-width="1" opacity="0.3215686274509804" d="M 2.5 261 L 4 275.5 L 6 279.5 L 6 285.5 L 8 292.5 L 6 291.5 L 4 282.5 Q 6.5 281 3 279.5 L 2.5 261 Z " /><path fill="rgb(203,234,246)" stroke="rgb(203,234,246)" stroke-width="1" opacity="0.3215686274509804" d="M 7.5 296 L 9 297.5 L 13 311.5 L 11 310.5 L 11 307.5 L 7 298.5 L 7.5 296 Z " /><path fill="rgb(79,35,51)" stroke="rgb(79,35,51)" stroke-width="1" opacity="0.9490196078431372" d="M 97.5 135 L 127.5 135 L 128.5 136 L 136.5 136 L 140.5 138 L 145.5 138 L 160.5 142 L 187.5 154 L 208 169.5 L 210.5 173 Q 212.8 172.3 212 174.5 L 223 188.5 L 229 200.5 L 229 204.5 L 232 213.5 L 232 231.5 Q 226.8 258.3 210.5 274 L 207 276.5 L 205.5 279 L 200 282 Q 201.1 284.7 198.5 284 L 186.5 293 L 157.5 305 L 137.5 310 L 107.5 312 L 106.5 311 L 84.5 310 L 70.5 306 L 68.5 306 L 59.5 304 L 38.5 295 L 13 276.5 Q 13.8 274.3 11.5 275 L 5 265.5 L 5 234.5 L 6 234.5 L 6 264.5 L 21.5 281 L 41.5 294 L 63.5 303 L 78.5 307 L 92.5 308 L 93.5 309 L 108.5 309 L 109.5 310 L 110.5 309 L 128.5 309 L 133.5 307 L 136.5 308 L 166.5 300 L 185.5 291 L 202 280 Q 200.9 277.3 203.5 278 L 209.5 271 Q 211.8 271.8 211 269.5 L 217 263.5 L 228 241.5 L 230 230.5 L 230 213.5 L 228 209.5 L 227 202.5 L 224 197.5 L 224 194.5 L 221 191.5 L 221 188.5 L 210.5 175 L 207 172.5 L 201.5 166 L 195 162.5 L 193.5 160 L 190 158.5 Q 190.8 156.3 188.5 157 L 172.5 148 L 168.5 148 L 163.5 144 L 156.5 143 L 149.5 140 L 139.5 139 L 135.5 137 L 125.5 137 L 124.5 136 L 97.5 136 L 97.5 135 Z " /><path fill="rgb(79,35,51)" stroke="rgb(79,35,51)" stroke-width="1" opacity="0.9490196078431372" d="M 87.5 136 L 93 136.5 L 87.5 137 L 87.5 136 Z " /><path fill="rgb(79,35,51)" stroke="rgb(79,35,51)" stroke-width="1" opacity="0.9490196078431372" d="M 80.5 137 L 85 137.5 L 80.5 138 L 80.5 137 Z " /><path fill="rgb(79,35,51)" stroke="rgb(79,35,51)" stroke-width="1" opacity="0.9490196078431372" d="M 74.5 138 L 77 138.5 L 44.5 150 L 45.5 148 L 74.5 138 Z " /><path fill="rgb(79,35,51)" stroke="rgb(79,35,51)" stroke-width="1" opacity="0.9490196078431372" d="M 41.5 150 Q 43.8 149.3 43 151.5 L 37.5 155 L 35.5 155 L 31 159.5 L 25.5 170 L 25 168.5 L 32 156.5 L 37.5 151 L 41.5 150 Z " /><path fill="rgb(79,35,51)" stroke="rgb(79,35,51)" stroke-width="1" opacity="0.9490196078431372" d="M 140.5 168 L 144.5 168 L 152 173.5 L 150.5 173 L 143.5 171 L 138.5 171 L 128 177 Q 121.2 186.3 118 200.5 L 118 220.5 L 123 237.5 L 132.5 248 Q 135.8 251.2 143.5 250 L 146.5 249 L 146.5 250 L 137.5 252 L 128 246.5 L 124.5 242 Q 122.3 242.8 123 240.5 L 117 228.5 L 115 210.5 L 116 209.5 L 116 198.5 L 118 190.5 L 127 175 Q 132 174.4 134.5 170 Q 139.5 171 140.5 168 Z " /><path fill="rgb(79,35,51)" stroke="rgb(79,35,51)" stroke-width="1" opacity="0.9490196078431372" d="M 39.5 170 L 44 172 L 46 175.5 L 43.5 176 Q 42.1 172.4 36.5 173 L 29 177.5 Q 29.7 180.1 27 179 L 27 181.5 L 24 184.5 L 19 202.5 L 20 204.5 L 19 205.5 L 19 225.5 L 23 240.5 L 31.5 251 Q 34.7 253.3 41.5 252 L 48 246.5 L 48.5 245 L 49 246.5 L 44.5 252 L 36.5 255 Q 28.5 252.5 24 246.5 L 20 239.5 L 16 225.5 L 16 206.5 L 18 196.5 L 18 194.5 L 23 181.5 L 29.5 173 L 39.5 170 Z " /><path fill="rgb(79,35,51)" stroke="rgb(79,35,51)" stroke-width="1" opacity="0.9490196078431372" d="M 24.5 171 L 25 172.5 L 20.5 180 L 21 178.5 L 24.5 171 Z " /><path fill="rgb(79,35,51)" stroke="rgb(79,35,51)" stroke-width="1" opacity="0.9490196078431372" d="M 156.5 178 L 157.5 180 L 156.5 178 Z " /><path fill="rgb(79,35,51)" stroke="rgb(79,35,51)" stroke-width="1" opacity="0.9490196078431372" d="M 19.5 181 L 20 183.5 L 17 187.5 L 14 198.5 L 16 198.5 Q 16.7 201.5 13 200 L 13 202.5 L 11.5 205 L 11 203.5 L 16 190.5 L 16 187.5 L 19.5 181 Z " /><path fill="rgb(79,35,51)" stroke="rgb(79,35,51)" stroke-width="1" opacity="0.9490196078431372" d="M 10.5 207 L 11 209.5 L 10 209.5 L 10.5 207 Z " /><path fill="rgb(79,35,51)" stroke="rgb(79,35,51)" stroke-width="1" opacity="0.9490196078431372" d="M 9.5 211 L 10 213.5 L 7.5 223 L 7 220.5 L 9.5 211 Z " /><path fill="rgb(79,35,51)" stroke="rgb(79,35,51)" stroke-width="1" opacity="0.9490196078431372" d="M 165.5 214 L 166 216.5 L 165 216.5 L 165.5 214 Z " /><path fill="rgb(79,35,51)" stroke="rgb(79,35,51)" stroke-width="1" opacity="0.9490196078431372" d="M 6.5 224 L 8 226.5 L 6.5 233 L 6 227.5 L 6 225.5 L 6.5 224 Z " /><path fill="rgb(164,48,126)" stroke="rgb(164,48,126)" stroke-width="1" opacity="0.996078431372549" d="M 138.5 172 L 144.5 173 L 147.5 172 L 145.5 175 L 141 178.5 L 132 197.5 L 130 212.5 L 131 214.5 L 129 215.5 Q 130 211 127.5 210 Q 124.9 210.7 126 208 L 124 208 L 124 212 L 122.5 212 L 121 211.5 L 120 220.5 Q 122.5 222 121 227.5 L 125 238.5 L 133.5 247 Q 136.2 249.8 142.5 249 L 147.5 248 L 147.5 249 L 136.5 250 Q 129 247 125 240.5 L 119 226.5 Q 120.2 221.8 118 220.5 L 118 200.5 L 120 192.5 L 125 185.5 L 126 181.5 L 130.5 177 L 138.5 172 Z " /><path fill="rgb(164,48,126)" stroke="rgb(164,48,126)" stroke-width="1" opacity="0.996078431372549" d="M 36.5 174 L 45 176.5 Q 39.3 180.8 37 188.5 L 34 202.5 L 33 217.5 L 34 220 Q 30.3 221.3 32 215.5 L 30 210.5 Q 32.3 209.3 29.5 208 Q 23.8 207.3 23 211.5 Q 20.2 213.2 21 218.5 L 22 219.5 L 22 230.5 L 25 240.5 L 33.5 251 L 40.5 251 L 47.5 246 L 44.5 250 Q 41.6 253.6 33.5 252 L 26 245.5 L 21 235.5 L 19 225.5 L 19 205.5 L 20 203.5 L 19 200.5 L 26 182.5 L 33.5 175 L 36.5 174 Z " /><path fill="rgb(164,48,126)" stroke="rgb(164,48,126)" stroke-width="1" opacity="0.996078431372549" d="M 130.5 221 L 131 224.5 L 130 224.5 L 130.5 221 Z " /><path fill="rgb(164,48,126)" stroke="rgb(164,48,126)" stroke-width="1" opacity="0.996078431372549" d="M 250.5 238 L 254 240.5 L 253 244.5 L 243 257.5 L 243 260.5 L 239 266.5 L 239 279.5 L 244 293.5 L 255.5 307 L 260 309.5 Q 259.3 311.8 261.5 311 L 275.5 320 L 280 320 Q 278.9 322.7 281.5 322 L 295.5 330 L 298.5 330 L 315 341.5 Q 313.9 344.8 316.5 344 L 319 345 L 324 354.5 L 325 369.5 L 319 384.5 L 308.5 396 L 287.5 410 L 257.5 421 L 236.5 426 L 235.5 424 L 257.5 419 L 265.5 415 L 282.5 410 L 302 398.5 L 304.5 395 L 312 389.5 L 319 378.5 L 321 365.5 L 320 360.5 L 321 357.5 Q 319.1 347.9 311.5 344 L 308.5 343 L 304.5 350 Q 300.5 350.5 300 347.5 Q 299.3 343.8 301.5 343 Q 304.1 343.7 303 341 Q 297.7 339.8 298.5 343 L 281.5 343 L 280 343.5 L 279 340.5 L 281 337 L 283 336.5 Q 279.9 333.5 273 335 L 272 339.5 L 272.5 341 L 42.5 341 L 41 342.5 L 39.5 345 L 37 345 L 37 350.5 L 39 355 Q 42 353.8 41 357.5 L 39 356.5 L 27 337.5 L 17 315.5 L 10 291.5 L 10 285.5 L 7 272.5 L 9.5 274 L 12 275.5 L 15.5 280 L 19 282.5 Q 18.3 284.8 20.5 284 L 33.5 293 L 45.5 299 L 74.5 309 L 82.5 309 L 89.5 311 L 99.5 311 L 100.5 312 L 119.5 312 L 120.5 311 L 131.5 311 L 132.5 310 L 149.5 308 L 177.5 298 L 198.5 286 L 220 265.5 L 222.5 260 Q 224.8 260.8 224 258.5 L 234 242.5 L 232.5 240 L 235 241.5 L 235.5 245 L 236.5 242 L 239.5 247 L 245.5 248 Q 247.8 247.3 247 243.5 L 246 240.5 L 250.5 238 Z M 28 323 Q 25 327 29 326 L 28 323 Z M 39 336 L 36 339 L 32 338 L 35 345 L 40 339 L 39 336 Z " /><path fill="rgb(164,48,126)" stroke="rgb(164,48,126)" stroke-width="1" opacity="0.996078431372549" d="M 240 240 L 244 240.5 L 241.5 245 L 240 245 L 240 240 Z " /><path fill="rgb(164,48,126)" stroke="rgb(164,48,126)" stroke-width="1" opacity="0.996078431372549" d="M 42.5 360 L 45 361.5 L 48.5 367 Q 51.1 366.2 50 369.5 L 50.5 371 L 42.5 360 Z " /><path fill="rgb(41,133,197)" stroke="rgb(41,133,197)" stroke-width="1" opacity="0.996078431372549" d="M 291.5 80 L 324.5 87 L 373.5 103 L 444.5 136 L 461.5 146 L 472 154 L 473.5 157 L 477 159.5 Q 484.2 165.8 485 178.5 Q 482.5 180 484 185.5 L 481.5 189 Q 475.1 194.1 465.5 196 L 450.5 197 L 449.5 198 L 423.5 198 L 420.5 199 L 419.5 198 L 376.5 198 Q 375 200.5 369.5 199 L 368 200.5 L 369.5 203 L 427.5 227 L 448.5 240 L 459 250.5 L 463 259.5 L 463 267.5 L 457.5 276 L 454.5 278 L 437.5 288 L 434.5 288 L 425.5 292 L 392.5 299 L 379.5 300 L 376.5 302 L 371.5 302 L 358.5 305 L 353 308.5 L 352 310.5 L 356.5 317 L 375.5 330 L 401.5 345 L 419 359.5 L 421 365.5 L 411.5 376 L 386.5 390 L 366.5 397 L 361.5 400 Q 352.5 400 347.5 404 L 341.5 404 L 337.5 407 L 329.5 408 L 326.5 410 L 310.5 412 L 308.5 414 L 300.5 415 L 298.5 414 L 295.5 416 L 280 419 Q 281.4 415.3 275.5 417 L 265.5 421 L 252.5 424 L 252.5 423 L 278.5 415 L 280.5 413 L 291.5 409 Q 306.1 402.1 316 390.5 L 325 375.5 L 327 360.5 L 325 350.5 L 316 338 L 305.5 331 L 275.5 316 Q 261.2 307.8 251 295.5 L 244 278.5 L 245 275.5 L 245 271.5 L 249 261 L 253 258.5 Q 252.5 254.5 255.5 254 L 259 254 L 259 249 L 260.5 249 L 263.5 246 L 264.5 247 L 268 245.5 L 271.5 239 L 274.5 240 L 280.5 237 L 281 240 L 297.5 239 L 298.5 238 L 359.5 238 L 360.5 239 L 407.5 239 Q 410.7 242.8 419.5 241 L 429.5 238 L 433 239 Q 431.5 235.2 434.5 236 L 436 236.5 L 434.5 234 L 407 222 Q 408.3 218.7 403.5 220 L 392.5 215 L 389.5 215 L 385.5 212 L 382.5 212 L 366 202.5 L 365 199.5 L 367.5 197 Q 372.2 198.3 373.5 196 L 448.5 196 L 449.5 195 L 468.5 193 L 481 187 L 483 180.5 L 482 179.5 L 482 171.5 L 479 165.5 L 467.5 153 L 451.5 142 L 419.5 125 L 374.5 105 L 334.5 91 L 323.5 89 L 304.5 83 L 291.5 81 L 291.5 80 Z M 277 241 L 279 244 L 281 243 L 277 241 Z M 438 241 L 433 243 L 439 243 Q 440 240 438 241 Z M 267 247 L 269 250 Q 271 251 270 249 L 267 247 Z " /><path fill="rgb(41,133,197)" stroke="rgb(41,133,197)" stroke-width="1" opacity="0.996078431372549" d="M 164.5 85 L 193.5 85 L 201 86.5 L 194.5 87 L 193.5 86 L 164.5 86 L 164.5 85 Z " /><path fill="rgb(41,133,197)" stroke="rgb(41,133,197)" stroke-width="1" opacity="0.996078431372549" d="M 156.5 86 L 161 86.5 L 156.5 87 L 156.5 86 Z " /><path fill="rgb(41,133,197)" stroke="rgb(41,133,197)" stroke-width="1" opacity="0.996078431372549" d="M 150.5 87 L 155 87.5 L 150.5 88 L 150.5 87 Z " /><path fill="rgb(41,133,197)" stroke="rgb(41,133,197)" stroke-width="1" opacity="0.996078431372549" d="M 202.5 87 Q 214.7 87.8 221 94.5 L 219.5 98 L 207.5 99 L 206.5 100 L 194.5 100 L 190.5 102 L 169.5 103 L 160.5 105 L 158.5 104 L 152.5 106 L 144.5 106 L 137.5 108 Q 129.3 106.3 125.5 109 L 123.5 108 L 119.5 110 L 116.5 109 L 110.5 111 L 106.5 110 L 98 112 L 101.5 107 L 121.5 96 L 120.5 98 Q 111.9 99.9 107 105.5 L 109.5 107 Q 111.8 103.2 118.5 104 L 117.5 107 L 127 105.5 L 122.5 105 L 120.5 106 L 120.5 105 L 126.5 104 Q 127.7 106.3 132.5 105 L 132.5 104 L 128 103.5 L 183.5 97 L 183.5 98 L 181 98.5 L 185 99 Q 183.8 96 187.5 97 L 188.5 96 L 196.5 96 L 200.5 94 L 217 93.5 L 212.5 90 L 202.5 88 L 202.5 87 Z " /><path fill="rgb(41,133,197)" stroke="rgb(41,133,197)" stroke-width="1" opacity="0.996078431372549" d="M 145.5 88 L 149 88.5 L 145.5 89 L 145.5 88 Z " /><path fill="rgb(41,133,197)" stroke="rgb(41,133,197)" stroke-width="1" opacity="0.996078431372549" d="M 141.5 89 L 144 89.5 L 138.5 91 L 138.5 90 L 141.5 89 Z " /><path fill="rgb(41,133,197)" stroke="rgb(41,133,197)" stroke-width="1" opacity="0.996078431372549" d="M 134.5 91 L 137 91.5 L 132.5 93 L 132.5 92 L 134.5 91 Z " /><path fill="rgb(41,133,197)" stroke="rgb(41,133,197)" stroke-width="1" opacity="0.996078431372549" d="M 125.5 94 L 128 94.5 L 123.5 96 L 123.5 95 L 125.5 94 Z " /><path fill="rgb(41,133,197)" stroke="rgb(41,133,197)" stroke-width="1" opacity="0.996078431372549" d="M 301.5 233 L 358.5 233 L 360 234.5 L 300.5 235 L 301.5 233 Z " /><path fill="rgb(41,133,197)" stroke="rgb(41,133,197)" stroke-width="1" opacity="0.996078431372549" d="M 415.5 235 L 422 236 Q 423.5 239.7 420.5 239 Q 417.4 235.6 410 236.5 L 415.5 235 Z " /><path fill="rgb(88,192,230)" stroke="rgb(88,192,230)" stroke-width="1" opacity="0.984313725490196" d="M 305.5 82 L 317.5 83 L 337.5 88 L 374.5 100 L 406.5 113 L 442.5 130 L 473.5 147 Q 488 155 498 167.5 L 499 169.5 L 499 189.5 L 490.5 195 L 476.5 199 L 459.5 202 L 451.5 202 L 450.5 203 L 412.5 205 Q 411 207.5 405.5 206 L 401 209.5 L 408.5 215 L 454.5 231 L 470.5 239 L 483 250.5 Q 487.1 255 486 264.5 Q 484.3 272.8 478.5 277 L 473.5 281 L 457.5 289 L 429.5 298 L 425.5 298 L 421.5 300 L 417.5 300 L 389.5 307 L 379.5 311 L 377 313.5 Q 377.5 319.1 381.5 321 L 423.5 342 Q 436.4 348.1 446 357.5 L 450 363.5 L 450 367.5 L 445 375 L 420.5 388 L 386.5 400 L 379.5 401 L 361.5 407 L 309.5 418 L 245.5 426 L 245.5 425 L 258.5 423 L 275.5 417 L 280 417 Q 278.9 419.7 281.5 419 L 299.5 414 L 304.5 415 L 310.5 412 L 326.5 410 L 329.5 408 L 337.5 407 L 341.5 404 L 347.5 404 L 353.5 401 L 361.5 400 Q 366.4 395.9 374.5 395 L 408.5 378 L 420 367.5 L 421 364.5 Q 418.6 355.9 411.5 352 L 389.5 337 L 367.5 325 L 354 314.5 L 352 310.5 L 354.5 307 L 362.5 304 L 376.5 302 L 379.5 300 L 392.5 299 L 425.5 292 Q 429.8 288.3 437.5 288 L 456 278 Q 454.9 275.3 457.5 276 L 463 267.5 L 463 259.5 Q 459 246.5 448.5 240 L 421.5 224 L 380.5 207 L 377.5 207 L 368 201.5 L 369.5 199 Q 375 200.5 376.5 198 L 419.5 198 L 422.5 199 L 423.5 198 L 449.5 198 L 450.5 197 L 465.5 196 Q 476.3 193.8 483 187.5 L 485 174.5 Q 482.1 163.4 474.5 157 L 472 155.5 Q 472.8 153.3 470.5 154 L 461.5 146 L 444.5 136 L 392.5 111 L 389.5 111 L 373.5 103 Q 360.8 100.7 351.5 95 L 313.5 84 L 305.5 83 L 305.5 82 Z " /><path fill="rgb(88,192,230)" stroke="rgb(88,192,230)" stroke-width="1" opacity="0.984313725490196" d="M 161.5 86 L 193.5 86 Q 195.3 88.7 201.5 87 L 212.5 90 L 217 93.5 L 200.5 94 L 196.5 96 L 151.5 100 L 144.5 102 L 128.5 103 L 120.5 105 Q 119.2 102.8 114.5 104 L 108.5 107 Q 105 105 109.5 103 L 122.5 96 L 137.5 91 L 161.5 86 Z M 158 89 L 158 90 L 161 90 L 158 89 Z M 150 90 L 148 92 L 150 92 L 150 90 Z M 152 90 L 152 91 L 156 91 L 152 90 Z " /><path fill="rgb(202,45,125)" stroke="rgb(202,45,125)" stroke-width="1" opacity="0.996078431372549" d="M 144.5 175 L 142 178.5 L 140.5 181 L 141 179.5 L 144.5 175 Z " /><path fill="rgb(202,45,125)" stroke="rgb(202,45,125)" stroke-width="1" opacity="0.996078431372549" d="M 42.5 179 L 41.5 181 L 42.5 179 Z " /><path fill="rgb(202,45,125)" stroke="rgb(202,45,125)" stroke-width="1" opacity="0.996078431372549" d="M 39.5 184 L 40 185.5 L 37.5 191 L 37 188.5 L 39.5 184 Z " /><path fill="rgb(202,45,125)" stroke="rgb(202,45,125)" stroke-width="1" opacity="0.996078431372549" d="M 36.5 192 L 37 194.5 L 36 194.5 L 36.5 192 Z " /><path fill="rgb(202,45,125)" stroke="rgb(202,45,125)" stroke-width="1" opacity="0.996078431372549" d="M 133.5 194 L 134 196.5 L 132 202.5 L 132 222.5 L 136 235.5 L 142.5 245 L 147 247.5 L 137.5 249 Q 129.3 245.7 125 238.5 L 121 227.5 L 120 214.5 L 121.5 211 L 124 212 Q 122.3 206.8 126 208 Q 124.9 210.7 127.5 210 Q 130.1 211.4 129.5 216 L 131 213.5 L 130 208.5 L 133.5 194 Z M 131 221 L 130 225 L 131 225 L 131 221 Z " /><path fill="rgb(202,45,125)" stroke="rgb(202,45,125)" stroke-width="1" opacity="0.996078431372549" d="M 35.5 196 L 36 199.5 L 35 199.5 L 35.5 196 Z " /><path fill="rgb(202,45,125)" stroke="rgb(202,45,125)" stroke-width="1" opacity="0.996078431372549" d="M 34.5 202 L 36 229.5 L 39 238.5 L 44.5 246 L 47 246.5 L 40.5 251 L 33.5 251 L 25 240.5 L 22 230.5 L 21 214.5 L 26.5 208 Q 30.3 207.3 31 209.5 L 31 211.5 L 32 220 Q 34.7 221.1 34 218.5 L 33 214.5 L 34 213.5 L 34.5 202 Z " /><path fill="rgb(202,45,125)" stroke="rgb(202,45,125)" stroke-width="1" opacity="0.996078431372549" d="M 27.5 323 L 29 326 Q 25.5 327.1 27.5 323 Z " /><path fill="rgb(202,45,125)" stroke="rgb(202,45,125)" stroke-width="1" opacity="0.996078431372549" d="M 273 335 Q 279.9 333.5 283 336.5 L 281 337 L 279 341.5 L 280.5 344 L 281.5 343 L 299 343 Q 297.8 339.3 303 341 Q 304.1 343.7 301.5 343 Q 299.3 343.8 300 347.5 Q 300.5 350.5 304.5 350 L 308.5 343 L 311.5 344 L 319 351.5 L 321 359.5 L 320 364.5 Q 322.3 365.8 321 370.5 L 319 378.5 L 308.5 393 L 302 397.5 L 300.5 400 L 294.5 402 Q 290.2 407.7 282.5 410 L 265.5 415 L 257.5 419 L 249.5 420 L 235 424.5 L 235.5 426 L 209.5 429 L 208.5 430 L 200.5 430 L 199.5 431 L 164.5 431 L 137.5 426 L 114.5 418 Q 86 405.5 65 385.5 Q 65.8 383.3 63.5 384 L 60 379 L 57 377.5 Q 57.8 375.3 55.5 376 Q 50.3 373.4 50 367 L 47 365.5 L 43.5 360 L 41 358.5 L 41 355 Q 38.3 356.1 39 353.5 Q 35.8 351 37 345 L 41 343.5 L 42.5 341 L 273 340.5 L 272 337.5 L 273 335 Z " /><path fill="rgb(202,45,125)" stroke="rgb(202,45,125)" stroke-width="1" opacity="0.996078431372549" d="M 38.5 336 L 40 338.5 L 34.5 345 L 32 338 L 35.5 339 L 38.5 336 Z " /><path fill="rgb(235,204,65)" stroke="rgb(235,204,65)" stroke-width="1" opacity="0.996078431372549" d="M 147.5 173 L 150.5 173 L 156 177.5 L 164 193.5 L 165 204.5 L 166 205.5 L 166 213.5 L 163 229.5 L 159 238.5 L 152.5 246 L 147.5 248 L 140 242.5 L 136 235.5 L 132 222.5 L 132 202.5 L 135 190.5 L 139 182.5 L 147.5 173 Z " /><path fill="rgb(235,204,65)" stroke="rgb(235,204,65)" stroke-width="1" opacity="0.996078431372549" d="M 45.5 176 L 50 180.5 L 55 192.5 L 57 202.5 L 57 219.5 L 54 234.5 L 47.5 246 Q 42.8 246.8 42 243.5 L 39 238.5 L 35 224.5 L 35 200.5 L 40 183.5 L 45.5 176 Z " /><path fill="rgb(156,83,129)" stroke="rgb(156,83,129)" stroke-width="1" opacity="0.5764705882352941" d="M 191.5 72 L 194 72.5 L 191.5 73 L 191.5 72 Z " /><path fill="rgb(156,83,129)" stroke="rgb(156,83,129)" stroke-width="1" opacity="0.5764705882352941" d="M 209.5 72 L 213 72.5 L 209.5 73 L 209.5 72 Z " /><path fill="rgb(156,83,129)" stroke="rgb(156,83,129)" stroke-width="1" opacity="0.5764705882352941" d="M 174.5 73 L 182 73.5 L 174.5 74 L 174.5 73 Z " /><path fill="rgb(156,83,129)" stroke="rgb(156,83,129)" stroke-width="1" opacity="0.5764705882352941" d="M 223.5 73 L 235 73.5 L 223.5 74 L 223.5 73 Z " /><path fill="rgb(156,83,129)" stroke="rgb(156,83,129)" stroke-width="1" opacity="0.5764705882352941" d="M 162.5 74 L 170 74.5 L 162.5 75 L 162.5 74 Z " /><path fill="rgb(156,83,129)" stroke="rgb(156,83,129)" stroke-width="1" opacity="0.5764705882352941" d="M 156.5 75 L 160 75.5 L 156.5 76 L 156.5 75 Z " /><path fill="rgb(156,83,129)" stroke="rgb(156,83,129)" stroke-width="1" opacity="0.5764705882352941" d="M 148.5 76 L 153 76.5 L 136.5 80 L 136.5 79 L 148.5 76 Z " /><path fill="rgb(156,83,129)" stroke="rgb(156,83,129)" stroke-width="1" opacity="0.5764705882352941" d="M 129.5 81 L 132 81.5 Q 84.3 96.8 54 129.5 L 32 156.5 L 26 166.5 L 16 187.5 L 8 214.5 L 8 219.5 L 6 225.5 L 6 227.5 Q 7.5 233 5 234.5 L 5 265.5 L 8 273.5 L 10 291.5 L 15 309.5 L 27 337.5 Q 43.4 367.6 68.5 389 L 84 400.5 L 82.5 400 Q 64.7 388.8 51 373.5 L 37 356.5 L 18 323.5 L 16 314.5 L 11 303.5 L 6 281.5 L 6 274.5 L 3 262.5 L 3 239.5 L 4 235 L 2 234.5 L 4 234 L 3 227.5 L 5 227.5 L 4 225.5 L 4.5 223 L 6 223.5 L 7 218.5 L 7 216.5 L 8 209.5 Q 5.5 208 9 206.5 L 10 202.5 L 9.5 201 Q 11.8 201.8 11 199.5 L 10.5 198 Q 13.1 198.8 12 195.5 L 14 190.5 L 13 188.5 L 16 187 L 18 180.5 L 17 178 L 19 177.5 L 18.5 176 Q 19.7 178.3 21 175.5 L 23 169.5 L 22.5 168 L 24 168.5 L 23 166.5 L 26 165.5 L 27 162.5 L 26.5 161 Q 28.8 161.8 28 159.5 L 33.5 152 L 36 150.5 L 49 132.5 L 48.5 131 L 50.5 131 Q 52.8 131.8 52 129.5 L 51.5 128 L 53 128.5 L 53.5 126 L 54.5 127 L 64.5 117 L 69 114.5 Q 68.3 112.3 70.5 113 Q 94.9 91.9 129.5 81 Z " /></svg>